<svg version="1" xmlns="http://www.w3.org/2000/svg" width="1066.667" height="1066.667" viewBox="0 0 800.000000 800.000000"><path d="M82.9 77.8c-7.3.3-7.7.4-11.3 4.1l-3.8 3.9v430.1l4 4.1 4 4.2 89.9-.1c49.4-.1 93-.3 96.8-.6 22.9-1.4 38.1-3.8 55-8.7 8.5-2.4 22.4-7.7 24.5-9.3.8-.6 2.7-1.6 4.2-2.3 8.7-3.7 22.9-15.2 32.3-26.2 11.6-13.5 24.8-41.8 27.1-57.9.2-1.9.6-3.7.8-4 .8-1.2 1.9-14.7 1.9-22.6 0-26.1-5.7-46.2-18.9-66-10.5-15.9-24.7-28.2-43.1-37.6l-7.3-3.6 2.6-1.9c29.1-21 45.7-52.5 45.8-86.9 0-22.4-5.4-41-17.7-60.9-13.4-22-32.5-37.4-57.9-47-7.1-2.6-25.8-7.1-34.3-8.1-2.7-.4-6.1-.9-7.5-1.1-5.7-1.2-163.7-2.5-187.1-1.6zm174.6 68.7c26.1 3.3 37 7.8 45.6 18.7 13.4 17.1 16.1 44.6 6.2 64.2-6.7 13.1-23.2 23.3-42.3 26.1-2.5.4-5.8.9-7.5 1.1-1.6.3-29 .7-60.7 1l-57.8.6V144.8l55.8.5c30.6.3 58 .8 60.7 1.2zm7 179.9c1.7.3 4.8.8 7 1 6.9.8 17.9 3.4 23.7 5.6 5.4 2 15.1 7.9 19.3 11.7 6.3 5.7 11.9 14.7 15.8 25.3 3 8.2 3.3 29.8.6 39.9-6.9 25.8-23.7 39.3-56.9 45.7-1.9.3-32.6.9-68.2 1.1l-64.8.5V324.8l60.3.5c33.1.3 61.6.8 63.2 1.1zM560 274.3c-.3.3-3.9.7-8 1.1-31.9 2.7-68.7 16.5-89 33.4-13.5 11.3-23 23.1-30.4 37.9-9.8 19.4-13 32.7-13 53.8 0 13.9.9 20.8 4.5 33 9.8 33.4 38.7 60.9 80.4 76.5 9 3.4 34.9 11.4 45 13.9 2.2.5 9.6 2.4 16.5 4.1 6.9 1.7 13.2 3.3 14 3.5.8.2 3.5.9 6 1.5s6.1 1.5 8 1.9c1.9.5 7.3 1.8 12 3.1 4.7 1.2 9.2 2.4 10 2.6 51.5 13 72.7 30.4 73.6 60.2.6 22.6-12.1 41.6-35.4 53.2-6.2 3-19.6 7.9-24 8.6-1.5.3-3.3.7-4 .9-.8.3-3.7.8-6.5 1.1-2.9.4-5.6.9-6 1.1-2 1.2-34 1.1-43.7-.2-42.2-5.2-74.1-24.2-86.8-51.6-2.6-5.6-6.2-15.4-6.8-18.4-3.8-19-4.2-21.4-4.3-25.7-.1-2.6-.3-2.7-4.3-2.3-5 .5-12.4 1.2-22.3 2.1-3.8.4-8.1.8-9.5.9-1.4.2-6.5.7-11.5 1.1-4.9.4-9.3.9-9.7 1-.5.1-3.3.2-6.3.3l-5.6.1.2 9.7c.3 13.7 3.8 35.4 6.9 42.8.4 1.1 2.2 5.7 4 10.2 11.8 30.8 36.3 58.6 65.7 74.2 13.6 7.4 27.1 12.4 46 17.1 7.6 1.9 8.3 2 26.3 4.6 12.6 1.9 55.8 2.5 68.7 1.1 59.4-6.5 106.7-36.8 128.2-82.1 3.7-7.7 7.7-19 8.7-24.6.3-1.4 1-4.5 1.6-7 1.3-5.6 1.9-34 .8-38.3-.5-1.8-1.1-5-1.5-7.1-1.9-13.1-8.1-28.1-17.3-42-9.8-14.8-30.9-32.4-51.1-42.5-8.8-4.5-25.7-10.9-38.6-14.7-11.7-3.5-63.9-16.6-79.1-19.9-1.1-.2-5.5-1.3-9.9-2.5s-8.7-2.3-9.5-2.5c-5.8-1.1-29.1-9.5-36.5-13-9.3-4.5-14.7-8.9-19.4-16-10.9-16.2-8.3-39.2 6.2-55.1 11.9-13 26.3-19.3 52.7-23 1.9-.3 11.4-.7 21-.8 44.3-.9 72.2 9.9 87.5 33.8 6.1 9.5 10.6 22.6 12.1 34.6.4 3 .8 6.2 1 7 .1.8.3 2.5.3 3.6.1 1.8.6 2.1 3.4 1.9 1.7-.2 8.2-.6 14.2-1 6.1-.4 12-.8 13.3-1 1.2-.2 7.3-.7 13.5-1.1 6.1-.4 12.1-.8 13.2-.9 1.1-.1 4.2-.3 6.8-.4 3.8-.1 4.9-.5 5.5-2.2 1.2-3.1-1.5-28.6-3.8-36.4-9.7-32.5-24.3-54.9-47-71.9-17.5-13.1-43.7-24.3-68.5-29.2-2.2-.4-4.2-.8-4.5-.9-.3-.1-3.4-.5-7-.9-3.6-.5-7.4-1-8.5-1.3-2.7-.6-47.9-1.5-48.5-1z"/></svg>